<?xml version="1.0" encoding="UTF-8" standalone="no"?>
<!DOCTYPE svg PUBLIC "-//W3C//DTD SVG 1.1//EN"
 "http://www.w3.org/Graphics/SVG/1.1/DTD/svg11.dtd">
<!-- Generated by graphviz version 2.40.1 (0)
 -->
<!-- Title: %3 Pages: 1 -->
<svg width="660pt" height="809pt"
 viewBox="0.00 0.00 660.00 809.00" xmlns="http://www.w3.org/2000/svg" xmlns:xlink="http://www.w3.org/1999/xlink">
<g id="graph0" class="graph" transform="scale(1 1) rotate(0) translate(4 805)">
<title>%3</title>
<polygon fill="#ffffff" stroke="transparent" points="-4,4 -4,-805 656,-805 656,4 -4,4"/>
<!-- 139922153846672 -->
<g id="node1" class="node">
<title>139922153846672</title>
<polygon fill="#caff70" stroke="#000000" points="470,-31 405,-31 405,0 470,0 470,-31"/>
<text text-anchor="middle" x="437.5" y="-7" font-family="monospace" font-size="10.00" fill="#000000"> (1, 12)</text>
</g>
<!-- 139922155013216 -->
<g id="node2" class="node">
<title>139922155013216</title>
<polygon fill="#d3d3d3" stroke="#000000" points="488,-86 387,-86 387,-67 488,-67 488,-86"/>
<text text-anchor="middle" x="437.5" y="-74" font-family="monospace" font-size="10.00" fill="#000000">AddmmBackward0</text>
</g>
<!-- 139922155013216&#45;&gt;139922153846672 -->
<g id="edge28" class="edge">
<title>139922155013216&#45;&gt;139922153846672</title>
<path fill="none" stroke="#000000" d="M437.5,-66.9688C437.5,-60.1289 437.5,-50.5621 437.5,-41.5298"/>
<polygon fill="#000000" stroke="#000000" points="441.0001,-41.3678 437.5,-31.3678 434.0001,-41.3678 441.0001,-41.3678"/>
</g>
<!-- 139922155015424 -->
<g id="node3" class="node">
<title>139922155015424</title>
<polygon fill="#d3d3d3" stroke="#000000" points="358,-141 257,-141 257,-122 358,-122 358,-141"/>
<text text-anchor="middle" x="307.5" y="-129" font-family="monospace" font-size="10.00" fill="#000000">AccumulateGrad</text>
</g>
<!-- 139922155015424&#45;&gt;139922155013216 -->
<g id="edge1" class="edge">
<title>139922155015424&#45;&gt;139922155013216</title>
<path fill="none" stroke="#000000" d="M330.1443,-121.9197C350.895,-113.1406 381.8465,-100.0457 405.1916,-90.1689"/>
<polygon fill="#000000" stroke="#000000" points="406.8331,-93.2749 414.679,-86.155 404.1056,-86.8281 406.8331,-93.2749"/>
</g>
<!-- 139922056120176 -->
<g id="node4" class="node">
<title>139922056120176</title>
<polygon fill="#add8e6" stroke="#000000" points="324,-207 265,-207 265,-177 324,-177 324,-207"/>
<text text-anchor="middle" x="294.5" y="-195" font-family="monospace" font-size="10.00" fill="#000000">fc.bias</text>
<text text-anchor="middle" x="294.5" y="-184" font-family="monospace" font-size="10.00" fill="#000000"> (12)</text>
</g>
<!-- 139922056120176&#45;&gt;139922155015424 -->
<g id="edge2" class="edge">
<title>139922056120176&#45;&gt;139922155015424</title>
<path fill="none" stroke="#000000" d="M297.7804,-176.7333C299.454,-168.9447 301.5086,-159.3831 303.2969,-151.0604"/>
<polygon fill="#000000" stroke="#000000" points="306.7611,-151.5986 305.4401,-141.0864 299.9173,-150.1279 306.7611,-151.5986"/>
</g>
<!-- 139922155013072 -->
<g id="node5" class="node">
<title>139922155013072</title>
<polygon fill="#d3d3d3" stroke="#000000" points="485,-141 390,-141 390,-122 485,-122 485,-141"/>
<text text-anchor="middle" x="437.5" y="-129" font-family="monospace" font-size="10.00" fill="#000000">ViewBackward0</text>
</g>
<!-- 139922155013072&#45;&gt;139922155013216 -->
<g id="edge3" class="edge">
<title>139922155013072&#45;&gt;139922155013216</title>
<path fill="none" stroke="#000000" d="M437.5,-121.9197C437.5,-114.9083 437.5,-105.1442 437.5,-96.4652"/>
<polygon fill="#000000" stroke="#000000" points="441.0001,-96.3408 437.5,-86.3408 434.0001,-96.3409 441.0001,-96.3408"/>
</g>
<!-- 139922154990912 -->
<g id="node6" class="node">
<title>139922154990912</title>
<polygon fill="#d3d3d3" stroke="#000000" points="533,-201.5 342,-201.5 342,-182.5 533,-182.5 533,-201.5"/>
<text text-anchor="middle" x="437.5" y="-189.5" font-family="monospace" font-size="10.00" fill="#000000">MaxPool2DWithIndicesBackward0</text>
</g>
<!-- 139922154990912&#45;&gt;139922155013072 -->
<g id="edge4" class="edge">
<title>139922154990912&#45;&gt;139922155013072</title>
<path fill="none" stroke="#000000" d="M437.5,-182.2796C437.5,-174.0376 437.5,-161.9457 437.5,-151.629"/>
<polygon fill="#000000" stroke="#000000" points="441.0001,-151.3972 437.5,-141.3972 434.0001,-151.3973 441.0001,-151.3972"/>
</g>
<!-- 139922154987840 -->
<g id="node7" class="node">
<title>139922154987840</title>
<polygon fill="#d3d3d3" stroke="#000000" points="485,-267.5 390,-267.5 390,-248.5 485,-248.5 485,-267.5"/>
<text text-anchor="middle" x="437.5" y="-255.5" font-family="monospace" font-size="10.00" fill="#000000">ReluBackward0</text>
</g>
<!-- 139922154987840&#45;&gt;139922154990912 -->
<g id="edge5" class="edge">
<title>139922154987840&#45;&gt;139922154990912</title>
<path fill="none" stroke="#000000" d="M437.5,-248.2615C437.5,-238.7077 437.5,-223.8615 437.5,-211.8183"/>
<polygon fill="#000000" stroke="#000000" points="441.0001,-211.7784 437.5,-201.7785 434.0001,-211.7785 441.0001,-211.7784"/>
</g>
<!-- 139922154981984 -->
<g id="node8" class="node">
<title>139922154981984</title>
<polygon fill="#d3d3d3" stroke="#000000" points="506,-328 369,-328 369,-309 506,-309 506,-328"/>
<text text-anchor="middle" x="437.5" y="-316" font-family="monospace" font-size="10.00" fill="#000000">ConvolutionBackward0</text>
</g>
<!-- 139922154981984&#45;&gt;139922154987840 -->
<g id="edge6" class="edge">
<title>139922154981984&#45;&gt;139922154987840</title>
<path fill="none" stroke="#000000" d="M437.5,-308.7796C437.5,-300.5376 437.5,-288.4457 437.5,-278.129"/>
<polygon fill="#000000" stroke="#000000" points="441.0001,-277.8972 437.5,-267.8972 434.0001,-277.8973 441.0001,-277.8972"/>
</g>
<!-- 139922154982464 -->
<g id="node9" class="node">
<title>139922154982464</title>
<polygon fill="#d3d3d3" stroke="#000000" points="369,-383 178,-383 178,-364 369,-364 369,-383"/>
<text text-anchor="middle" x="273.5" y="-371" font-family="monospace" font-size="10.00" fill="#000000">MaxPool2DWithIndicesBackward0</text>
</g>
<!-- 139922154982464&#45;&gt;139922154981984 -->
<g id="edge7" class="edge">
<title>139922154982464&#45;&gt;139922154981984</title>
<path fill="none" stroke="#000000" d="M302.0666,-363.9197C329.0281,-354.8778 369.6403,-341.2578 399.3602,-331.2908"/>
<polygon fill="#000000" stroke="#000000" points="400.6179,-334.5606 408.9861,-328.0626 398.3922,-327.9239 400.6179,-334.5606"/>
</g>
<!-- 139922154981648 -->
<g id="node10" class="node">
<title>139922154981648</title>
<polygon fill="#d3d3d3" stroke="#000000" points="321,-443.5 226,-443.5 226,-424.5 321,-424.5 321,-443.5"/>
<text text-anchor="middle" x="273.5" y="-431.5" font-family="monospace" font-size="10.00" fill="#000000">ReluBackward0</text>
</g>
<!-- 139922154981648&#45;&gt;139922154982464 -->
<g id="edge8" class="edge">
<title>139922154981648&#45;&gt;139922154982464</title>
<path fill="none" stroke="#000000" d="M273.5,-424.2796C273.5,-416.0376 273.5,-403.9457 273.5,-393.629"/>
<polygon fill="#000000" stroke="#000000" points="277.0001,-393.3972 273.5,-383.3972 270.0001,-393.3973 277.0001,-393.3972"/>
</g>
<!-- 139922154988896 -->
<g id="node11" class="node">
<title>139922154988896</title>
<polygon fill="#d3d3d3" stroke="#000000" points="342,-504 205,-504 205,-485 342,-485 342,-504"/>
<text text-anchor="middle" x="273.5" y="-492" font-family="monospace" font-size="10.00" fill="#000000">ConvolutionBackward0</text>
</g>
<!-- 139922154988896&#45;&gt;139922154981648 -->
<g id="edge9" class="edge">
<title>139922154988896&#45;&gt;139922154981648</title>
<path fill="none" stroke="#000000" d="M273.5,-484.7796C273.5,-476.5376 273.5,-464.4457 273.5,-454.129"/>
<polygon fill="#000000" stroke="#000000" points="277.0001,-453.8972 273.5,-443.8972 270.0001,-453.8973 277.0001,-453.8972"/>
</g>
<!-- 139922154979536 -->
<g id="node12" class="node">
<title>139922154979536</title>
<polygon fill="#d3d3d3" stroke="#000000" points="205,-559 14,-559 14,-540 205,-540 205,-559"/>
<text text-anchor="middle" x="109.5" y="-547" font-family="monospace" font-size="10.00" fill="#000000">MaxPool2DWithIndicesBackward0</text>
</g>
<!-- 139922154979536&#45;&gt;139922154988896 -->
<g id="edge10" class="edge">
<title>139922154979536&#45;&gt;139922154988896</title>
<path fill="none" stroke="#000000" d="M138.0666,-539.9197C165.0281,-530.8778 205.6403,-517.2578 235.3602,-507.2908"/>
<polygon fill="#000000" stroke="#000000" points="236.6179,-510.5606 244.9861,-504.0626 234.3922,-503.9239 236.6179,-510.5606"/>
</g>
<!-- 139922154979632 -->
<g id="node13" class="node">
<title>139922154979632</title>
<polygon fill="#d3d3d3" stroke="#000000" points="157,-619.5 62,-619.5 62,-600.5 157,-600.5 157,-619.5"/>
<text text-anchor="middle" x="109.5" y="-607.5" font-family="monospace" font-size="10.00" fill="#000000">ReluBackward0</text>
</g>
<!-- 139922154979632&#45;&gt;139922154979536 -->
<g id="edge11" class="edge">
<title>139922154979632&#45;&gt;139922154979536</title>
<path fill="none" stroke="#000000" d="M109.5,-600.2796C109.5,-592.0376 109.5,-579.9457 109.5,-569.629"/>
<polygon fill="#000000" stroke="#000000" points="113.0001,-569.3972 109.5,-559.3972 106.0001,-569.3973 113.0001,-569.3972"/>
</g>
<!-- 139922154987744 -->
<g id="node14" class="node">
<title>139922154987744</title>
<polygon fill="#d3d3d3" stroke="#000000" points="178,-680 41,-680 41,-661 178,-661 178,-680"/>
<text text-anchor="middle" x="109.5" y="-668" font-family="monospace" font-size="10.00" fill="#000000">ConvolutionBackward0</text>
</g>
<!-- 139922154987744&#45;&gt;139922154979632 -->
<g id="edge12" class="edge">
<title>139922154987744&#45;&gt;139922154979632</title>
<path fill="none" stroke="#000000" d="M109.5,-660.7796C109.5,-652.5376 109.5,-640.4457 109.5,-630.129"/>
<polygon fill="#000000" stroke="#000000" points="113.0001,-629.8972 109.5,-619.8972 106.0001,-629.8973 113.0001,-629.8972"/>
</g>
<!-- 139922154982272 -->
<g id="node15" class="node">
<title>139922154982272</title>
<polygon fill="#d3d3d3" stroke="#000000" points="101,-735 0,-735 0,-716 101,-716 101,-735"/>
<text text-anchor="middle" x="50.5" y="-723" font-family="monospace" font-size="10.00" fill="#000000">AccumulateGrad</text>
</g>
<!-- 139922154982272&#45;&gt;139922154987744 -->
<g id="edge13" class="edge">
<title>139922154982272&#45;&gt;139922154987744</title>
<path fill="none" stroke="#000000" d="M60.777,-715.9197C69.2176,-708.0514 81.377,-696.7164 91.4369,-687.3385"/>
<polygon fill="#000000" stroke="#000000" points="94.0154,-689.7198 98.9435,-680.3408 89.2422,-684.5995 94.0154,-689.7198"/>
</g>
<!-- 139922056119776 -->
<g id="node16" class="node">
<title>139922056119776</title>
<polygon fill="#add8e6" stroke="#000000" points="101,-801 0,-801 0,-771 101,-771 101,-801"/>
<text text-anchor="middle" x="50.5" y="-789" font-family="monospace" font-size="10.00" fill="#000000">conv1.weight</text>
<text text-anchor="middle" x="50.5" y="-778" font-family="monospace" font-size="10.00" fill="#000000"> (16, 3, 3, 3)</text>
</g>
<!-- 139922056119776&#45;&gt;139922154982272 -->
<g id="edge14" class="edge">
<title>139922056119776&#45;&gt;139922154982272</title>
<path fill="none" stroke="#000000" d="M50.5,-770.7333C50.5,-763.0322 50.5,-753.5977 50.5,-745.3414"/>
<polygon fill="#000000" stroke="#000000" points="54.0001,-745.0864 50.5,-735.0864 47.0001,-745.0864 54.0001,-745.0864"/>
</g>
<!-- 139922154981744 -->
<g id="node17" class="node">
<title>139922154981744</title>
<polygon fill="#d3d3d3" stroke="#000000" points="220,-735 119,-735 119,-716 220,-716 220,-735"/>
<text text-anchor="middle" x="169.5" y="-723" font-family="monospace" font-size="10.00" fill="#000000">AccumulateGrad</text>
</g>
<!-- 139922154981744&#45;&gt;139922154987744 -->
<g id="edge15" class="edge">
<title>139922154981744&#45;&gt;139922154987744</title>
<path fill="none" stroke="#000000" d="M159.0488,-715.9197C150.4651,-708.0514 138.0997,-696.7164 127.8693,-687.3385"/>
<polygon fill="#000000" stroke="#000000" points="129.9721,-684.5181 120.2355,-680.3408 125.242,-689.6782 129.9721,-684.5181"/>
</g>
<!-- 139922056119696 -->
<g id="node18" class="node">
<title>139922056119696</title>
<polygon fill="#add8e6" stroke="#000000" points="208,-801 131,-801 131,-771 208,-771 208,-801"/>
<text text-anchor="middle" x="169.5" y="-789" font-family="monospace" font-size="10.00" fill="#000000">conv1.bias</text>
<text text-anchor="middle" x="169.5" y="-778" font-family="monospace" font-size="10.00" fill="#000000"> (16)</text>
</g>
<!-- 139922056119696&#45;&gt;139922154981744 -->
<g id="edge16" class="edge">
<title>139922056119696&#45;&gt;139922154981744</title>
<path fill="none" stroke="#000000" d="M169.5,-770.7333C169.5,-763.0322 169.5,-753.5977 169.5,-745.3414"/>
<polygon fill="#000000" stroke="#000000" points="173.0001,-745.0864 169.5,-735.0864 166.0001,-745.0864 173.0001,-745.0864"/>
</g>
<!-- 139922154983376 -->
<g id="node19" class="node">
<title>139922154983376</title>
<polygon fill="#d3d3d3" stroke="#000000" points="324,-559 223,-559 223,-540 324,-540 324,-559"/>
<text text-anchor="middle" x="273.5" y="-547" font-family="monospace" font-size="10.00" fill="#000000">AccumulateGrad</text>
</g>
<!-- 139922154983376&#45;&gt;139922154988896 -->
<g id="edge17" class="edge">
<title>139922154983376&#45;&gt;139922154988896</title>
<path fill="none" stroke="#000000" d="M273.5,-539.9197C273.5,-532.9083 273.5,-523.1442 273.5,-514.4652"/>
<polygon fill="#000000" stroke="#000000" points="277.0001,-514.3408 273.5,-504.3408 270.0001,-514.3409 277.0001,-514.3408"/>
</g>
<!-- 139922056119456 -->
<g id="node20" class="node">
<title>139922056119456</title>
<polygon fill="#add8e6" stroke="#000000" points="327,-625 220,-625 220,-595 327,-595 327,-625"/>
<text text-anchor="middle" x="273.5" y="-613" font-family="monospace" font-size="10.00" fill="#000000">conv2.weight</text>
<text text-anchor="middle" x="273.5" y="-602" font-family="monospace" font-size="10.00" fill="#000000"> (32, 16, 3, 3)</text>
</g>
<!-- 139922056119456&#45;&gt;139922154983376 -->
<g id="edge18" class="edge">
<title>139922056119456&#45;&gt;139922154983376</title>
<path fill="none" stroke="#000000" d="M273.5,-594.7333C273.5,-587.0322 273.5,-577.5977 273.5,-569.3414"/>
<polygon fill="#000000" stroke="#000000" points="277.0001,-569.0864 273.5,-559.0864 270.0001,-569.0864 277.0001,-569.0864"/>
</g>
<!-- 139922154990480 -->
<g id="node21" class="node">
<title>139922154990480</title>
<polygon fill="#d3d3d3" stroke="#000000" points="443,-559 342,-559 342,-540 443,-540 443,-559"/>
<text text-anchor="middle" x="392.5" y="-547" font-family="monospace" font-size="10.00" fill="#000000">AccumulateGrad</text>
</g>
<!-- 139922154990480&#45;&gt;139922154988896 -->
<g id="edge19" class="edge">
<title>139922154990480&#45;&gt;139922154988896</title>
<path fill="none" stroke="#000000" d="M371.7718,-539.9197C352.9465,-531.219 324.9495,-518.2792 303.6487,-508.4343"/>
<polygon fill="#000000" stroke="#000000" points="304.9357,-505.1734 294.39,-504.155 301.9989,-511.5276 304.9357,-505.1734"/>
</g>
<!-- 139922056119536 -->
<g id="node22" class="node">
<title>139922056119536</title>
<polygon fill="#add8e6" stroke="#000000" points="431,-625 354,-625 354,-595 431,-595 431,-625"/>
<text text-anchor="middle" x="392.5" y="-613" font-family="monospace" font-size="10.00" fill="#000000">conv2.bias</text>
<text text-anchor="middle" x="392.5" y="-602" font-family="monospace" font-size="10.00" fill="#000000"> (32)</text>
</g>
<!-- 139922056119536&#45;&gt;139922154990480 -->
<g id="edge20" class="edge">
<title>139922056119536&#45;&gt;139922154990480</title>
<path fill="none" stroke="#000000" d="M392.5,-594.7333C392.5,-587.0322 392.5,-577.5977 392.5,-569.3414"/>
<polygon fill="#000000" stroke="#000000" points="396.0001,-569.0864 392.5,-559.0864 389.0001,-569.0864 396.0001,-569.0864"/>
</g>
<!-- 139922154987264 -->
<g id="node23" class="node">
<title>139922154987264</title>
<polygon fill="#d3d3d3" stroke="#000000" points="488,-383 387,-383 387,-364 488,-364 488,-383"/>
<text text-anchor="middle" x="437.5" y="-371" font-family="monospace" font-size="10.00" fill="#000000">AccumulateGrad</text>
</g>
<!-- 139922154987264&#45;&gt;139922154981984 -->
<g id="edge21" class="edge">
<title>139922154987264&#45;&gt;139922154981984</title>
<path fill="none" stroke="#000000" d="M437.5,-363.9197C437.5,-356.9083 437.5,-347.1442 437.5,-338.4652"/>
<polygon fill="#000000" stroke="#000000" points="441.0001,-338.3408 437.5,-328.3408 434.0001,-338.3409 441.0001,-338.3408"/>
</g>
<!-- 139922056119216 -->
<g id="node24" class="node">
<title>139922056119216</title>
<polygon fill="#add8e6" stroke="#000000" points="491,-449 384,-449 384,-419 491,-419 491,-449"/>
<text text-anchor="middle" x="437.5" y="-437" font-family="monospace" font-size="10.00" fill="#000000">conv3.weight</text>
<text text-anchor="middle" x="437.5" y="-426" font-family="monospace" font-size="10.00" fill="#000000"> (64, 32, 3, 3)</text>
</g>
<!-- 139922056119216&#45;&gt;139922154987264 -->
<g id="edge22" class="edge">
<title>139922056119216&#45;&gt;139922154987264</title>
<path fill="none" stroke="#000000" d="M437.5,-418.7333C437.5,-411.0322 437.5,-401.5977 437.5,-393.3414"/>
<polygon fill="#000000" stroke="#000000" points="441.0001,-393.0864 437.5,-383.0864 434.0001,-393.0864 441.0001,-393.0864"/>
</g>
<!-- 139922154985632 -->
<g id="node25" class="node">
<title>139922154985632</title>
<polygon fill="#d3d3d3" stroke="#000000" points="607,-383 506,-383 506,-364 607,-364 607,-383"/>
<text text-anchor="middle" x="556.5" y="-371" font-family="monospace" font-size="10.00" fill="#000000">AccumulateGrad</text>
</g>
<!-- 139922154985632&#45;&gt;139922154981984 -->
<g id="edge23" class="edge">
<title>139922154985632&#45;&gt;139922154981984</title>
<path fill="none" stroke="#000000" d="M535.7718,-363.9197C516.9465,-355.219 488.9495,-342.2792 467.6487,-332.4343"/>
<polygon fill="#000000" stroke="#000000" points="468.9357,-329.1734 458.39,-328.155 465.9989,-335.5276 468.9357,-329.1734"/>
</g>
<!-- 139922056120016 -->
<g id="node26" class="node">
<title>139922056120016</title>
<polygon fill="#add8e6" stroke="#000000" points="595,-449 518,-449 518,-419 595,-419 595,-449"/>
<text text-anchor="middle" x="556.5" y="-437" font-family="monospace" font-size="10.00" fill="#000000">conv3.bias</text>
<text text-anchor="middle" x="556.5" y="-426" font-family="monospace" font-size="10.00" fill="#000000"> (64)</text>
</g>
<!-- 139922056120016&#45;&gt;139922154985632 -->
<g id="edge24" class="edge">
<title>139922056120016&#45;&gt;139922154985632</title>
<path fill="none" stroke="#000000" d="M556.5,-418.7333C556.5,-411.0322 556.5,-401.5977 556.5,-393.3414"/>
<polygon fill="#000000" stroke="#000000" points="560.0001,-393.0864 556.5,-383.0864 553.0001,-393.0864 560.0001,-393.0864"/>
</g>
<!-- 139922155013456 -->
<g id="node27" class="node">
<title>139922155013456</title>
<polygon fill="#d3d3d3" stroke="#000000" points="610,-141 533,-141 533,-122 610,-122 610,-141"/>
<text text-anchor="middle" x="571.5" y="-129" font-family="monospace" font-size="10.00" fill="#000000">TBackward0</text>
</g>
<!-- 139922155013456&#45;&gt;139922155013216 -->
<g id="edge25" class="edge">
<title>139922155013456&#45;&gt;139922155013216</title>
<path fill="none" stroke="#000000" d="M548.159,-121.9197C526.6743,-113.1014 494.5808,-99.9287 470.4807,-90.0369"/>
<polygon fill="#000000" stroke="#000000" points="471.6032,-86.7143 461.0231,-86.155 468.9452,-93.19 471.6032,-86.7143"/>
</g>
<!-- 139922154986352 -->
<g id="node28" class="node">
<title>139922154986352</title>
<polygon fill="#d3d3d3" stroke="#000000" points="652,-201.5 551,-201.5 551,-182.5 652,-182.5 652,-201.5"/>
<text text-anchor="middle" x="601.5" y="-189.5" font-family="monospace" font-size="10.00" fill="#000000">AccumulateGrad</text>
</g>
<!-- 139922154986352&#45;&gt;139922155013456 -->
<g id="edge26" class="edge">
<title>139922154986352&#45;&gt;139922155013456</title>
<path fill="none" stroke="#000000" d="M596.68,-182.2796C592.4626,-173.7746 586.2124,-161.17 580.9943,-150.6469"/>
<polygon fill="#000000" stroke="#000000" points="583.9859,-148.8014 576.4077,-141.3972 577.7146,-151.9112 583.9859,-148.8014"/>
</g>
<!-- 139922056119376 -->
<g id="node29" class="node">
<title>139922056119376</title>
<polygon fill="#add8e6" stroke="#000000" points="643,-273 560,-273 560,-243 643,-243 643,-273"/>
<text text-anchor="middle" x="601.5" y="-261" font-family="monospace" font-size="10.00" fill="#000000">fc.weight</text>
<text text-anchor="middle" x="601.5" y="-250" font-family="monospace" font-size="10.00" fill="#000000"> (12, 4096)</text>
</g>
<!-- 139922056119376&#45;&gt;139922154986352 -->
<g id="edge27" class="edge">
<title>139922056119376&#45;&gt;139922154986352</title>
<path fill="none" stroke="#000000" d="M601.5,-242.6924C601.5,-233.5067 601.5,-221.7245 601.5,-211.8312"/>
<polygon fill="#000000" stroke="#000000" points="605.0001,-211.703 601.5,-201.7031 598.0001,-211.7031 605.0001,-211.703"/>
</g>
</g>
</svg>
